HIERARCHY
ROOT Hips
{
	OFFSET 0.000000 0.000000 0.000000
	CHANNELS 6 Xposition Yposition Zposition Zrotation Yrotation Xrotation
	JOINT Spine
	{
		OFFSET 0.000000 0.000000 -1.053067
		CHANNELS 6 Xposition Yposition Zposition Zrotation Yrotation Xrotation
		JOINT Spine1
		{
			OFFSET 0.000000 0.000001 -2.382877
			CHANNELS 6 Xposition Yposition Zposition Zrotation Yrotation Xrotation
			JOINT Neck
			{
				OFFSET 0.000000 0.000001 -2.639722
				CHANNELS 6 Xposition Yposition Zposition Zrotation Yrotation Xrotation
				JOINT Head
				{
					OFFSET 0.000000 0.256846 -1.990555
					CHANNELS 6 Xposition Yposition Zposition Zrotation Yrotation Xrotation
					End Site
					{
						OFFSET 0.000000 0.000001 -2.568457
					}
				}
			}
			JOINT LeftShoulder
			{
				OFFSET 0.512620 -0.056020 -2.153831
				CHANNELS 6 Xposition Yposition Zposition Zrotation Yrotation Xrotation
				JOINT LeftArm
				{
					OFFSET 1.485729 0.000000 0.000000
					CHANNELS 6 Xposition Yposition Zposition Zrotation Yrotation Xrotation
					JOINT LeftForeArm
					{
						OFFSET 3.852898 0.000000 0.000000
						CHANNELS 6 Xposition Yposition Zposition Zrotation Yrotation Xrotation
						JOINT LeftHand
						{
							OFFSET 3.445927 0.000000 0.000000
							CHANNELS 6 Xposition Yposition Zposition Zrotation Yrotation Xrotation
							End Site
							{
								OFFSET 1.926343 0.000000 0.000000
							}
						}
					}
				}
			}
			JOINT RightShoulder
			{
				OFFSET -0.513668 -0.056020 -2.153831
				CHANNELS 6 Xposition Yposition Zposition Zrotation Yrotation Xrotation
				JOINT RightArm
				{
					OFFSET -1.485729 0.000000 0.000000
					CHANNELS 6 Xposition Yposition Zposition Zrotation Yrotation Xrotation
					JOINT RightForeArm
					{
						OFFSET -3.852898 0.000000 0.000000
						CHANNELS 6 Xposition Yposition Zposition Zrotation Yrotation Xrotation
						JOINT RightHand
						{
							OFFSET -3.445927 0.000000 0.000000
							CHANNELS 6 Xposition Yposition Zposition Zrotation Yrotation Xrotation
							End Site
							{
								OFFSET -1.926343 0.000000 0.000000
							}
						}
					}
				}
			}
		}
	}
	JOINT LeftUpLeg
	{
		OFFSET 1.284228 0.000000 0.000000
		CHANNELS 6 Xposition Yposition Zposition Zrotation Yrotation Xrotation
		JOINT LeftLeg
		{
			OFFSET 0.000000 -0.000003 6.684024
			CHANNELS 6 Xposition Yposition Zposition Zrotation Yrotation Xrotation
			JOINT LeftFoot
			{
				OFFSET 0.000000 -0.000003 5.369456
				CHANNELS 6 Xposition Yposition Zposition Zrotation Yrotation Xrotation
				JOINT LeftToeBase
				{
					OFFSET 0.000000 1.926342 0.834749
					CHANNELS 6 Xposition Yposition Zposition Zrotation Yrotation Xrotation
					End Site
					{
						OFFSET 0.000000 0.513691 0.000000
					}
				}
			}
		}
	}
	JOINT RightUpLeg
	{
		OFFSET -1.284228 0.000000 0.000000
		CHANNELS 6 Xposition Yposition Zposition Zrotation Yrotation Xrotation
		JOINT RightLeg
		{
			OFFSET 0.000000 -0.000003 6.684024
			CHANNELS 6 Xposition Yposition Zposition Zrotation Yrotation Xrotation
			JOINT RightFoot
			{
				OFFSET 0.000000 -0.000003 5.369456
				CHANNELS 6 Xposition Yposition Zposition Zrotation Yrotation Xrotation
				JOINT RightToeBase
				{
					OFFSET 0.000000 1.926342 0.834749
					CHANNELS 6 Xposition Yposition Zposition Zrotation Yrotation Xrotation
					End Site
					{
						OFFSET 0.000000 0.513691 0.000000
					}
				}
			}
		}
	}
}
MOTION
Frames: 8
Frame Time: 0.041667
-0.565405 -1.058782 -11.932114 -85.822782 3.127186 9.595283 0.000000 0.000001 -1.053067 6.517493 0.155528 -8.345523 0.000000 0.000001 -2.382874 2.243379 13.270435 0.709841 0.000001 0.000001 -2.639725 22.550940 -21.515654 16.637016 -0.000001 0.256848 -1.990552 37.977607 34.159637 17.095111 0.512620 -0.056020 -2.153831 10.279342 15.906297 0.700187 1.485727 -0.000000 -0.000002 -1.438812 -9.674417 16.247519 3.852898 0.000002 0.000001 -6.834717 12.861780 -27.089266 3.445929 0.000001 -0.000000 21.561423 -33.074597 -32.789406 -0.513667 -0.056020 -2.153834 5.676779 -6.562496 7.709093 -1.485729 0.000000 0.000002 -4.822142 34.091639 24.373919 -3.852898 0.000002 -0.000001 -65.471980 -18.387878 8.606376 -3.445926 0.000001 -0.000000 -4.320584 5.232004 -3.475117 1.284228 0.000000 -0.000001 3.502480 8.681987 -16.442678 -0.000001 -0.000003 6.684023 -15.406933 -3.246347 30.224441 -0.000001 -0.000002 5.369456 -18.122657 -4.510068 -12.229333 -0.000001 1.926343 0.834748 0.000008 0.000002 -0.000003 -1.284228 0.000000 -0.000001 -3.644288 -10.624426 -21.262504 -0.000000 -0.000004 6.684022 1.713762 5.712618 37.431113 0.000000 -0.000002 5.369459 0.299223 4.928897 -20.691896 0.000000 1.926342 0.834750 -0.000000 -0.000000 -0.000000 
-0.565673 -1.100466 -11.946294 -85.595043 3.066008 9.594009 0.000000 0.000001 -1.053067 6.497535 0.239432 -8.404387 0.000000 0.000001 -2.382877 2.229334 13.030113 0.640764 0.000001 -0.000000 -2.639722 22.496753 -21.590313 16.766975 -0.000001 0.256846 -1.990554 37.806316 34.367938 16.527142 0.512621 -0.056020 -2.153831 10.341262 15.957962 0.766048 1.485728 -0.000000 -0.000002 -1.496110 -9.667369 16.107734 3.852903 -0.000001 -0.000005 -6.779050 12.862208 -27.043553 3.445928 0.000001 0.000001 21.593962 -33.189122 -32.783617 -0.513667 -0.056020 -2.153832 5.646378 -6.775566 7.531747 -1.485729 -0.000000 0.000003 -4.549929 33.681305 24.206771 -3.852898 0.000001 -0.000001 -66.962936 -20.114499 8.173882 -3.445931 -0.000000 -0.000002 -5.009546 8.186614 -5.569516 1.284228 -0.000000 0.000001 3.367218 8.343447 -15.968089 -0.000001 -0.000003 6.684021 -15.398632 -3.227169 29.168043 -0.000001 -0.000003 5.369458 -18.351458 -4.389321 -12.215875 -0.000000 1.926343 0.834749 0.000002 0.000001 -0.000001 -1.284228 -0.000000 0.000001 -3.800064 -10.769215 -21.135059 0.000000 -0.000003 6.684023 1.731109 5.575398 37.045795 0.000000 -0.000003 5.369460 0.052082 5.191688 -20.277939 0.000000 1.926342 0.834749 0.000000 -0.000000 0.000002 
-0.567124 -1.143171 -11.959994 -85.396271 3.010140 9.588282 -0.000000 0.000000 -1.053067 6.492943 0.334626 -8.429398 0.000000 0.000001 -2.382879 2.216248 12.761181 0.530831 -0.000000 0.000001 -2.639718 22.466922 -21.654512 16.888268 -0.000000 0.256850 -1.990553 37.652521 34.535789 15.987846 0.512621 -0.056020 -2.153831 10.405063 16.038343 0.830286 1.485726 0.000000 -0.000001 -1.481954 -9.757455 16.304882 3.852898 0.000000 -0.000001 -6.957681 12.936921 -27.220937 3.445927 0.000000 0.000004 21.711778 -33.213967 -32.977639 -0.513668 -0.056020 -2.153830 5.513184 -7.015793 7.272896 -1.485728 -0.000000 -0.000002 -4.089014 33.254589 23.777623 -3.852896 0.000001 -0.000002 -68.537772 -21.320780 7.696101 -3.445930 -0.000002 -0.000000 -5.412615 10.740149 -7.433788 1.284228 -0.000000 0.000001 3.212106 7.973655 -15.542936 -0.000001 -0.000003 6.684022 -15.748273 -3.031507 28.150188 -0.000002 -0.000002 5.369459 -18.312251 -3.966399 -12.227765 -0.000000 1.926343 0.834749 0.000002 -0.000000 -0.000001 -1.284229 -0.000000 -0.000000 -3.946848 -10.888736 -21.013012 -0.000000 -0.000003 6.684023 1.789886 5.317654 36.677686 -0.000000 -0.000003 5.369460 -0.279837 5.487338 -19.868981 0.000000 1.926342 0.834750 -0.000000 -0.000001 -0.000000 
-0.569232 -1.186777 -11.974534 -85.176304 2.964670 9.585284 0.000000 0.000000 -1.053065 6.478112 0.403980 -8.399569 0.000000 0.000002 -2.382876 2.188570 12.530630 0.318871 -0.000001 0.000001 -2.639720 22.408910 -21.772094 17.031637 -0.000001 0.256847 -1.990557 37.495874 34.698980 15.471306 0.512620 -0.056020 -2.153828 10.436114 16.078313 0.961663 1.485727 -0.000001 0.000001 -1.501434 -9.680057 15.775225 3.852898 0.000001 -0.000005 -6.716051 12.828546 -26.959588 3.445928 0.000001 -0.000004 21.529764 -33.236452 -32.698779 -0.513669 -0.056020 -2.153825 5.445245 -7.336684 7.139675 -1.485730 0.000000 -0.000001 -3.863071 32.829335 23.085001 -3.852898 0.000002 0.000001 -70.053200 -22.430201 7.231997 -3.445929 0.000001 -0.000001 -5.857651 13.016333 -9.264288 1.284229 -0.000000 0.000004 3.059240 7.616196 -15.145791 -0.000000 -0.000003 6.684020 -16.187477 -2.847110 27.258062 -0.000002 -0.000002 5.369457 -18.162655 -3.480904 -12.249535 0.000001 1.926342 0.834749 -0.000002 0.000000 0.000001 -1.284228 -0.000000 0.000003 -4.198471 -11.059000 -20.871574 -0.000000 -0.000003 6.684024 1.852916 5.136078 36.284642 -0.000000 -0.000004 5.369460 -0.477190 5.779348 -19.446623 -0.000000 1.926343 0.834750 -0.000000 -0.000000 0.000000 
-0.572007 -1.231680 -11.988187 -84.993460 2.929062 9.571838 -0.000000 0.000000 -1.053066 6.468341 0.502370 -8.404614 0.000000 0.000002 -2.382877 2.172744 12.210114 0.187633 -0.000001 0.000001 -2.639730 22.356973 -21.834704 17.190384 0.000001 0.256848 -1.990551 37.342157 34.933853 14.935884 0.512620 -0.056020 -2.153834 10.497946 16.173593 1.036306 1.485725 0.000000 -0.000000 -1.489368 -9.664163 15.662327 3.852898 -0.000002 -0.000001 -6.688452 12.789299 -26.970498 3.445929 0.000002 -0.000002 21.519723 -33.274083 -32.719823 -0.513669 -0.056020 -2.153832 5.242947 -7.534053 6.850076 -1.485729 0.000000 0.000002 -3.401856 32.434851 22.908828 -3.852899 0.000004 -0.000003 -71.423404 -24.102267 7.076531 -3.445929 0.000002 0.000002 -6.533268 15.323960 -11.257613 1.284228 0.000000 0.000001 2.928666 7.241769 -14.802982 -0.000001 -0.000003 6.684019 -16.319791 -2.719233 26.433985 -0.000000 -0.000001 5.369457 -18.200977 -3.019451 -12.183893 0.000000 1.926342 0.834749 -0.000005 -0.000001 0.000001 -1.284228 0.000000 0.000001 -4.402672 -11.229576 -20.719401 -0.000000 -0.000003 6.684022 1.852896 4.991317 35.876842 -0.000000 -0.000003 5.369459 -0.600887 6.075018 -19.039086 0.000000 1.926342 0.834749 -0.000000 0.000000 0.000001 
-0.574404 -1.276016 -12.002951 -84.855067 2.876167 9.547030 -0.000000 0.000000 -1.053067 6.480216 0.608280 -8.416472 0.000000 0.000001 -2.382874 2.168049 11.901846 0.085402 -0.000001 -0.000000 -2.639728 22.340360 -21.886926 17.338628 -0.000001 0.256846 -1.990557 37.211168 35.158955 14.396318 0.512620 -0.056021 -2.153832 10.570233 16.283432 1.140719 1.485731 0.000000 0.000000 -1.440245 -9.679439 15.594850 3.852898 -0.000001 -0.000002 -6.749143 12.751122 -27.019378 3.445928 0.000001 -0.000002 21.562607 -33.276214 -32.777825 -0.513668 -0.056021 -2.153834 5.037548 -7.750459 6.513470 -1.485729 0.000000 0.000002 -3.004845 32.143574 22.972708 -3.852896 0.000000 -0.000003 -72.573943 -26.257793 7.283285 -3.445926 -0.000000 0.000002 -7.484706 17.726118 -13.324321 1.284228 -0.000000 0.000001 2.748479 6.887684 -14.525616 -0.000002 -0.000003 6.684023 -16.247403 -2.595522 25.764114 -0.000002 -0.000003 5.369460 -18.263786 -2.760805 -12.075704 -0.000000 1.926343 0.834749 0.000005 0.000001 -0.000003 -1.284229 -0.000000 0.000002 -4.596331 -11.361494 -20.559172 -0.000000 -0.000003 6.684024 1.910974 4.777805 35.490114 0.000000 -0.000002 5.369459 -0.770824 6.319989 -18.595607 0.000000 1.926342 0.834750 0.000000 -0.000000 0.000003 
-0.578347 -1.321100 -12.016462 -84.731406 2.821587 9.526340 0.000000 -0.000000 -1.053066 6.487895 0.724729 -8.401780 0.000000 0.000001 -2.382877 2.158272 11.582019 -0.060807 -0.000001 0.000001 -2.639722 22.332833 -21.965783 17.483046 0.000000 0.256847 -1.990556 37.119804 35.384420 13.925981 0.512619 -0.056019 -2.153828 10.636365 16.377071 1.255509 1.485729 -0.000001 0.000002 -1.372558 -9.647373 15.404424 3.852901 -0.000001 -0.000004 -6.748534 12.689353 -27.002758 3.445929 0.000000 0.000002 21.521684 -33.311314 -32.759568 -0.513668 -0.056020 -2.153829 4.957943 -8.011441 6.354214 -1.485730 -0.000000 0.000002 -2.919086 31.873354 22.523903 -3.852898 0.000001 0.000001 -73.653242 -28.255502 7.588694 -3.445931 -0.000000 0.000000 -8.504335 20.026793 -15.266673 1.284228 -0.000000 0.000001 2.473481 6.541029 -14.330893 -0.000000 -0.000004 6.684021 -15.968646 -2.491202 25.178932 -0.000000 -0.000002 5.369459 -18.317572 -2.718928 -11.925204 -0.000000 1.926343 0.834749 0.000001 0.000001 0.000000 -1.284229 -0.000000 0.000002 -4.813540 -11.502339 -20.402588 -0.000000 -0.000003 6.684023 2.110592 4.493787 35.115290 -0.000000 -0.000003 5.369455 -1.044667 6.574009 -18.164617 0.000000 1.926342 0.834749 -0.000000 -0.000000 0.000002 
-0.582627 -1.366281 -12.030269 -84.625088 2.782157 9.507054 -0.000000 0.000000 -1.053069 6.491951 0.730381 -8.447391 0.000000 0.000001 -2.382878 2.156051 11.415263 -0.099430 -0.000001 0.000001 -2.639722 22.383011 -22.013614 17.528123 0.000001 0.256849 -1.990556 37.033122 35.529261 13.439362 0.512620 -0.056020 -2.153831 10.762323 16.426873 1.298583 1.485727 -0.000000 0.000001 -1.292657 -9.685526 15.606765 3.852899 -0.000000 -0.000005 -6.964251 12.685692 -27.171444 3.445931 -0.000000 0.000000 21.680291 -33.349150 -32.961298 -0.513667 -0.056020 -2.153829 4.876683 -8.302133 6.117261 -1.485728 -0.000000 -0.000001 -2.960156 31.685131 22.446536 -3.852897 0.000002 -0.000000 -74.386040 -30.992953 8.080400 -3.445927 -0.000000 0.000001 -9.913961 22.575911 -17.670078 1.284228 -0.000000 -0.000001 2.250748 6.218960 -14.188495 -0.000001 -0.000004 6.684022 -15.673647 -2.405903 24.768827 -0.000000 -0.000001 5.369459 -18.330841 -2.875281 -11.750207 0.000001 1.926343 0.834749 0.000001 0.000001 -0.000001 -1.284229 -0.000000 -0.000001 -5.056434 -11.672380 -20.214063 -0.000000 -0.000004 6.684023 2.202821 4.312552 34.695739 -0.000000 -0.000003 5.369457 -1.125804 6.643204 -17.815275 -0.000000 1.926342 0.834749 0.000000 0.000000 0.000003 
